<svg class="plot-d6a7b5" fill="currentColor" font-family="system-ui, sans-serif" font-size="10" text-anchor="middle" width="860" height="520" viewBox="0 0 860 520" style="background: rgb(248, 250, 252); color: rgb(51, 65, 85); font-family: system-ui, sans-serif; font-size: 15px;" xmlns="http://www.w3.org/2000/svg" role="img" aria-label="이상적 BB84의 QBER 증가와 비밀키 비율 감소: 이상적 단방향 후처리 하한 계열 차트"><style>:where(.plot-d6a7b5) {
  --plot-background: white;
  display: block;
  height: auto;
  height: intrinsic;
  max-width: 100%;
}
:where(.plot-d6a7b5 text),
:where(.plot-d6a7b5 tspan) {
  white-space: pre;
}</style><g aria-label="y-grid" aria-hidden="true" stroke="currentColor" stroke-opacity="0.1"><line x1="74" x2="818" y1="458" y2="458"></line><line x1="74" x2="818" y1="419.3174373942591" y2="419.3174373942591"></line><line x1="74" x2="818" y1="380.6348747885181" y2="380.6348747885181"></line><line x1="74" x2="818" y1="341.95231218277723" y2="341.95231218277723"></line><line x1="74" x2="818" y1="303.2697495770362" y2="303.2697495770362"></line><line x1="74" x2="818" y1="264.58718697129535" y2="264.58718697129535"></line><line x1="74" x2="818" y1="225.9046243655544" y2="225.9046243655544"></line><line x1="74" x2="818" y1="187.2220617598135" y2="187.2220617598135"></line><line x1="74" x2="818" y1="148.53949915407247" y2="148.53949915407247"></line><line x1="74" x2="818" y1="109.85693654833156" y2="109.85693654833156"></line></g><g aria-label="y-axis tick" aria-hidden="true" fill="none" stroke="currentColor"><path transform="translate(74,458)" d="M0,0L-6,0"></path><path transform="translate(74,419.3174373942591)" d="M0,0L-6,0"></path><path transform="translate(74,380.6348747885181)" d="M0,0L-6,0"></path><path transform="translate(74,341.95231218277723)" d="M0,0L-6,0"></path><path transform="translate(74,303.2697495770362)" d="M0,0L-6,0"></path><path transform="translate(74,264.58718697129535)" d="M0,0L-6,0"></path><path transform="translate(74,225.9046243655544)" d="M0,0L-6,0"></path><path transform="translate(74,187.2220617598135)" d="M0,0L-6,0"></path><path transform="translate(74,148.53949915407247)" d="M0,0L-6,0"></path><path transform="translate(74,109.85693654833156)" d="M0,0L-6,0"></path></g><g aria-label="y-axis tick label" text-anchor="end" font-variant="tabular-nums" transform="translate(-9,0)"><text y="0.32em" transform="translate(74,458)">0.0</text><text y="0.32em" transform="translate(74,419.3174373942591)">0.1</text><text y="0.32em" transform="translate(74,380.6348747885181)">0.2</text><text y="0.32em" transform="translate(74,341.95231218277723)">0.3</text><text y="0.32em" transform="translate(74,303.2697495770362)">0.4</text><text y="0.32em" transform="translate(74,264.58718697129535)">0.5</text><text y="0.32em" transform="translate(74,225.9046243655544)">0.6</text><text y="0.32em" transform="translate(74,187.2220617598135)">0.7</text><text y="0.32em" transform="translate(74,148.53949915407247)">0.8</text><text y="0.32em" transform="translate(74,109.85693654833156)">0.9</text></g><g aria-label="y-axis label" text-anchor="start" transform="translate(-71,-77)"><text y="0.71em" transform="translate(74,80)">↑ 점근 비밀키 비율 1-2h₂(Q)</text></g><g aria-label="x-grid" aria-hidden="true" stroke="currentColor" stroke-opacity="0.1"><line x1="135.4311926605505" x2="135.4311926605505" y1="80" y2="458"></line><line x1="203.6880733944954" x2="203.6880733944954" y1="80" y2="458"></line><line x1="271.9449541284403" x2="271.9449541284403" y1="80" y2="458"></line><line x1="340.2018348623853" x2="340.2018348623853" y1="80" y2="458"></line><line x1="408.4587155963303" x2="408.4587155963303" y1="80" y2="458"></line><line x1="476.7155963302752" x2="476.7155963302752" y1="80" y2="458"></line><line x1="544.9724770642201" x2="544.9724770642201" y1="80" y2="458"></line><line x1="613.2293577981651" x2="613.2293577981651" y1="80" y2="458"></line><line x1="681.4862385321101" x2="681.4862385321101" y1="80" y2="458"></line><line x1="749.743119266055" x2="749.743119266055" y1="80" y2="458"></line><line x1="818" x2="818" y1="80" y2="458"></line></g><g aria-label="x-axis tick" aria-hidden="true" fill="none" stroke="currentColor"><path transform="translate(135.4311926605505,458)" d="M0,0L0,6"></path><path transform="translate(203.6880733944954,458)" d="M0,0L0,6"></path><path transform="translate(271.9449541284403,458)" d="M0,0L0,6"></path><path transform="translate(340.2018348623853,458)" d="M0,0L0,6"></path><path transform="translate(408.4587155963303,458)" d="M0,0L0,6"></path><path transform="translate(476.7155963302752,458)" d="M0,0L0,6"></path><path transform="translate(544.9724770642201,458)" d="M0,0L0,6"></path><path transform="translate(613.2293577981651,458)" d="M0,0L0,6"></path><path transform="translate(681.4862385321101,458)" d="M0,0L0,6"></path><path transform="translate(749.743119266055,458)" d="M0,0L0,6"></path><path transform="translate(818,458)" d="M0,0L0,6"></path></g><g aria-label="x-axis tick label" font-variant="tabular-nums" transform="translate(0,9)"><text y="0.71em" transform="translate(135.4311926605505,458)">1</text><text y="0.71em" transform="translate(203.6880733944954,458)">2</text><text y="0.71em" transform="translate(271.9449541284403,458)">3</text><text y="0.71em" transform="translate(340.2018348623853,458)">4</text><text y="0.71em" transform="translate(408.4587155963303,458)">5</text><text y="0.71em" transform="translate(476.7155963302752,458)">6</text><text y="0.71em" transform="translate(544.9724770642201,458)">7</text><text y="0.71em" transform="translate(613.2293577981651,458)">8</text><text y="0.71em" transform="translate(681.4862385321101,458)">9</text><text y="0.71em" transform="translate(749.743119266055,458)">10</text><text y="0.71em" transform="translate(818,458)">11</text></g><g aria-label="x-axis label" text-anchor="end" transform="translate(39,59)"><text transform="translate(818,458)">양자 비트 오류율 QBER(%) →</text></g><g aria-label="text" fill="#1f2937" text-anchor="start" font-size="20" font-weight="700" transform="translate(0,-56)"><text y="0.71em" transform="translate(74,80)">이상적 BB84의 QBER 증가와 비밀키 비율 감소</text></g><g aria-label="dot" fill="#2563eb" transform="translate(6,-24)"><circle cx="74" cy="80" r="6"></circle></g><g aria-label="text" fill="#475569" text-anchor="start" transform="translate(18,-24)"><text y="0.71em" transform="translate(74,80)">이상적 단방향 후처리 하한</text></g><g aria-label="line" fill="none" stroke-width="3" stroke-linejoin="round" stroke-linecap="round"><path stroke="#2563eb" d="M74,80L203.688,180.6L408.459,292.746L613.229,382.321L749.743,434.013L818,457.935"></path></g><g aria-label="dot"><circle cx="74" cy="80" r="4" fill="#2563eb"></circle><circle cx="203.6880733944954" cy="180.60002677986952" r="4" fill="#2563eb"></circle><circle cx="408.4587155963303" cy="292.74573841722423" r="4" fill="#2563eb"></circle><circle cx="613.2293577981651" cy="382.32080801710276" r="4" fill="#2563eb"></circle><circle cx="749.743119266055" cy="434.01340215927075" r="4" fill="#2563eb"></circle><circle cx="818" cy="457.93498092875706" r="4" fill="#2563eb"></circle></g><g aria-label="text" fill="#475569" text-anchor="end" font-weight="600" transform="translate(-8,-12)"><text y="0.32em" transform="translate(818,458)">약 11%에서 비밀키 하한 소진</text></g></svg>