<svg class="plot-d6a7b5" fill="currentColor" font-family="system-ui, sans-serif" font-size="10" text-anchor="middle" width="860" height="520" viewBox="0 0 860 520" style="background: rgb(248, 250, 252); color: rgb(51, 65, 85); font-family: system-ui, sans-serif; font-size: 15px;" xmlns="http://www.w3.org/2000/svg" role="img" aria-label="비용 함수와 점근 상한 개념도: 비용 함수 T(n), 상한 함수 2n² 계열 차트"><style>:where(.plot-d6a7b5) {
  --plot-background: white;
  display: block;
  height: auto;
  height: intrinsic;
  max-width: 100%;
}
:where(.plot-d6a7b5 text),
:where(.plot-d6a7b5 tspan) {
  white-space: pre;
}</style><g aria-label="y-grid" aria-hidden="true" stroke="currentColor" stroke-opacity="0.1"><line x1="74" x2="818" y1="434.375" y2="434.375"></line><line x1="74" x2="818" y1="395" y2="395"></line><line x1="74" x2="818" y1="355.62500000000006" y2="355.62500000000006"></line><line x1="74" x2="818" y1="316.25" y2="316.25"></line><line x1="74" x2="818" y1="276.87499999999994" y2="276.87499999999994"></line><line x1="74" x2="818" y1="237.5" y2="237.5"></line><line x1="74" x2="818" y1="198.125" y2="198.125"></line><line x1="74" x2="818" y1="158.75" y2="158.75"></line><line x1="74" x2="818" y1="119.37499999999999" y2="119.37499999999999"></line><line x1="74" x2="818" y1="80" y2="80"></line></g><g aria-label="y-axis tick" aria-hidden="true" fill="none" stroke="currentColor"><path transform="translate(74,434.375)" d="M0,0L-6,0"></path><path transform="translate(74,395)" d="M0,0L-6,0"></path><path transform="translate(74,355.62500000000006)" d="M0,0L-6,0"></path><path transform="translate(74,316.25)" d="M0,0L-6,0"></path><path transform="translate(74,276.87499999999994)" d="M0,0L-6,0"></path><path transform="translate(74,237.5)" d="M0,0L-6,0"></path><path transform="translate(74,198.125)" d="M0,0L-6,0"></path><path transform="translate(74,158.75)" d="M0,0L-6,0"></path><path transform="translate(74,119.37499999999999)" d="M0,0L-6,0"></path><path transform="translate(74,80)" d="M0,0L-6,0"></path></g><g aria-label="y-axis tick label" text-anchor="end" font-variant="tabular-nums" transform="translate(-9,0)"><text y="0.32em" transform="translate(74,434.375)">5</text><text y="0.32em" transform="translate(74,395)">10</text><text y="0.32em" transform="translate(74,355.62500000000006)">15</text><text y="0.32em" transform="translate(74,316.25)">20</text><text y="0.32em" transform="translate(74,276.87499999999994)">25</text><text y="0.32em" transform="translate(74,237.5)">30</text><text y="0.32em" transform="translate(74,198.125)">35</text><text y="0.32em" transform="translate(74,158.75)">40</text><text y="0.32em" transform="translate(74,119.37499999999999)">45</text><text y="0.32em" transform="translate(74,80)">50</text></g><g aria-label="y-axis label" text-anchor="start" transform="translate(-71,-77)"><text y="0.71em" transform="translate(74,80)">↑ 상대 비용</text></g><g aria-label="x-grid" aria-hidden="true" stroke="currentColor" stroke-opacity="0.1"><line x1="74" x2="74" y1="80" y2="458"></line><line x1="167" x2="167" y1="80" y2="458"></line><line x1="260" x2="260" y1="80" y2="458"></line><line x1="353" x2="353" y1="80" y2="458"></line><line x1="446" x2="446" y1="80" y2="458"></line><line x1="539" x2="539" y1="80" y2="458"></line><line x1="632" x2="632" y1="80" y2="458"></line><line x1="725" x2="725" y1="80" y2="458"></line><line x1="818" x2="818" y1="80" y2="458"></line></g><g aria-label="x-axis tick" aria-hidden="true" fill="none" stroke="currentColor"><path transform="translate(74,458)" d="M0,0L0,6"></path><path transform="translate(167,458)" d="M0,0L0,6"></path><path transform="translate(260,458)" d="M0,0L0,6"></path><path transform="translate(353,458)" d="M0,0L0,6"></path><path transform="translate(446,458)" d="M0,0L0,6"></path><path transform="translate(539,458)" d="M0,0L0,6"></path><path transform="translate(632,458)" d="M0,0L0,6"></path><path transform="translate(725,458)" d="M0,0L0,6"></path><path transform="translate(818,458)" d="M0,0L0,6"></path></g><g aria-label="x-axis tick label" font-variant="tabular-nums" transform="translate(0,9)"><text y="0.71em" transform="translate(74,458)">1.0</text><text y="0.71em" transform="translate(167,458)">1.5</text><text y="0.71em" transform="translate(260,458)">2.0</text><text y="0.71em" transform="translate(353,458)">2.5</text><text y="0.71em" transform="translate(446,458)">3.0</text><text y="0.71em" transform="translate(539,458)">3.5</text><text y="0.71em" transform="translate(632,458)">4.0</text><text y="0.71em" transform="translate(725,458)">4.5</text><text y="0.71em" transform="translate(818,458)">5.0</text></g><g aria-label="x-axis label" text-anchor="end" transform="translate(39,59)"><text transform="translate(818,458)">입력 크기 n →</text></g><g aria-label="text" fill="#1f2937" text-anchor="start" font-size="20" font-weight="700" transform="translate(0,-56)"><text y="0.71em" transform="translate(74,80)">비용 함수와 점근 상한 개념도</text></g><g aria-label="dot" fill="#2563eb" transform="translate(6,-24)"><circle cx="74" cy="80" r="6"></circle></g><g aria-label="text" fill="#475569" text-anchor="start" transform="translate(18,-24)"><text y="0.71em" transform="translate(74,80)">비용 함수 T(n)</text></g><g aria-label="dot" fill="#dc2626" transform="translate(148,-24)"><circle cx="74" cy="80" r="6"></circle></g><g aria-label="text" fill="#475569" text-anchor="start" transform="translate(160,-24)"><text y="0.71em" transform="translate(74,80)">상한 함수 2n²</text></g><g aria-label="line" fill="none" stroke-width="3" stroke-linejoin="round" stroke-linecap="round"><path stroke="#2563eb" d="M74,450.125L260,410.75L446,355.625L632,284.75L818,198.125"></path><path stroke="#dc2626" d="M74,458L260,410.75L446,332L632,221.75L818,80"></path></g><g aria-label="dot"><circle cx="74" cy="450.125" r="4" fill="#2563eb"></circle><circle cx="74" cy="458" r="4" fill="#dc2626"></circle><circle cx="260" cy="410.75" r="4" fill="#2563eb"></circle><circle cx="260" cy="410.75" r="4" fill="#dc2626"></circle><circle cx="446" cy="355.62500000000006" r="4" fill="#2563eb"></circle><circle cx="446" cy="332.00000000000006" r="4" fill="#dc2626"></circle><circle cx="632" cy="284.75000000000006" r="4" fill="#2563eb"></circle><circle cx="632" cy="221.75" r="4" fill="#dc2626"></circle><circle cx="818" cy="198.125" r="4" fill="#2563eb"></circle><circle cx="818" cy="80" r="4" fill="#dc2626"></circle></g><g aria-label="text" fill="#475569" font-weight="600" transform="translate(0,-12)"><text y="0.32em" transform="translate(260,410.75)">n₀=2 이후 상한 성립</text></g></svg>