<svg class="plot-d6a7b5" fill="currentColor" font-family="system-ui, sans-serif" font-size="10" text-anchor="middle" width="860" height="520" viewBox="0 0 860 520" style="background: rgb(248, 250, 252); color: rgb(51, 65, 85); font-family: system-ui, sans-serif; font-size: 15px;" xmlns="http://www.w3.org/2000/svg" role="img" aria-label="생체인증 임계값에 따른 FMR·FNMR 상충 개념도: FMR 타인 오수락률, FNMR 본인 오거부율 계열 차트"><style>:where(.plot-d6a7b5) {
  --plot-background: white;
  display: block;
  height: auto;
  height: intrinsic;
  max-width: 100%;
}
:where(.plot-d6a7b5 text),
:where(.plot-d6a7b5 tspan) {
  white-space: pre;
}</style><g aria-label="y-grid" aria-hidden="true" stroke="currentColor" stroke-opacity="0.1"><line x1="74" x2="818" y1="458" y2="458"></line><line x1="74" x2="818" y1="420.2" y2="420.2"></line><line x1="74" x2="818" y1="382.40000000000003" y2="382.40000000000003"></line><line x1="74" x2="818" y1="344.59999999999997" y2="344.59999999999997"></line><line x1="74" x2="818" y1="306.8" y2="306.8"></line><line x1="74" x2="818" y1="269" y2="269"></line><line x1="74" x2="818" y1="231.20000000000002" y2="231.20000000000002"></line><line x1="74" x2="818" y1="193.40000000000003" y2="193.40000000000003"></line><line x1="74" x2="818" y1="155.59999999999997" y2="155.59999999999997"></line><line x1="74" x2="818" y1="117.79999999999998" y2="117.79999999999998"></line><line x1="74" x2="818" y1="80" y2="80"></line></g><g aria-label="y-axis tick" aria-hidden="true" fill="none" stroke="currentColor"><path transform="translate(74,458)" d="M0,0L-6,0"></path><path transform="translate(74,420.2)" d="M0,0L-6,0"></path><path transform="translate(74,382.40000000000003)" d="M0,0L-6,0"></path><path transform="translate(74,344.59999999999997)" d="M0,0L-6,0"></path><path transform="translate(74,306.8)" d="M0,0L-6,0"></path><path transform="translate(74,269)" d="M0,0L-6,0"></path><path transform="translate(74,231.20000000000002)" d="M0,0L-6,0"></path><path transform="translate(74,193.40000000000003)" d="M0,0L-6,0"></path><path transform="translate(74,155.59999999999997)" d="M0,0L-6,0"></path><path transform="translate(74,117.79999999999998)" d="M0,0L-6,0"></path><path transform="translate(74,80)" d="M0,0L-6,0"></path></g><g aria-label="y-axis tick label" text-anchor="end" font-variant="tabular-nums" transform="translate(-9,0)"><text y="0.32em" transform="translate(74,458)">0</text><text y="0.32em" transform="translate(74,420.2)">10</text><text y="0.32em" transform="translate(74,382.40000000000003)">20</text><text y="0.32em" transform="translate(74,344.59999999999997)">30</text><text y="0.32em" transform="translate(74,306.8)">40</text><text y="0.32em" transform="translate(74,269)">50</text><text y="0.32em" transform="translate(74,231.20000000000002)">60</text><text y="0.32em" transform="translate(74,193.40000000000003)">70</text><text y="0.32em" transform="translate(74,155.59999999999997)">80</text><text y="0.32em" transform="translate(74,117.79999999999998)">90</text><text y="0.32em" transform="translate(74,80)">100</text></g><g aria-label="y-axis label" text-anchor="start" transform="translate(-71,-77)"><text y="0.71em" transform="translate(74,80)">↑ 오류율(%)</text></g><g aria-label="x-grid" aria-hidden="true" stroke="currentColor" stroke-opacity="0.1"><line x1="74" x2="74" y1="80" y2="458"></line><line x1="148.40000000000003" x2="148.40000000000003" y1="80" y2="458"></line><line x1="222.8" x2="222.8" y1="80" y2="458"></line><line x1="297.2" x2="297.2" y1="80" y2="458"></line><line x1="371.6" x2="371.6" y1="80" y2="458"></line><line x1="446" x2="446" y1="80" y2="458"></line><line x1="520.4" x2="520.4" y1="80" y2="458"></line><line x1="594.8" x2="594.8" y1="80" y2="458"></line><line x1="669.2" x2="669.2" y1="80" y2="458"></line><line x1="743.6" x2="743.6" y1="80" y2="458"></line><line x1="818" x2="818" y1="80" y2="458"></line></g><g aria-label="x-axis tick" aria-hidden="true" fill="none" stroke="currentColor"><path transform="translate(74,458)" d="M0,0L0,6"></path><path transform="translate(148.40000000000003,458)" d="M0,0L0,6"></path><path transform="translate(222.8,458)" d="M0,0L0,6"></path><path transform="translate(297.2,458)" d="M0,0L0,6"></path><path transform="translate(371.6,458)" d="M0,0L0,6"></path><path transform="translate(446,458)" d="M0,0L0,6"></path><path transform="translate(520.4,458)" d="M0,0L0,6"></path><path transform="translate(594.8,458)" d="M0,0L0,6"></path><path transform="translate(669.2,458)" d="M0,0L0,6"></path><path transform="translate(743.6,458)" d="M0,0L0,6"></path><path transform="translate(818,458)" d="M0,0L0,6"></path></g><g aria-label="x-axis tick label" font-variant="tabular-nums" transform="translate(0,9)"><text y="0.71em" transform="translate(74,458)">0.0</text><text y="0.71em" transform="translate(148.40000000000003,458)">0.1</text><text y="0.71em" transform="translate(222.8,458)">0.2</text><text y="0.71em" transform="translate(297.2,458)">0.3</text><text y="0.71em" transform="translate(371.6,458)">0.4</text><text y="0.71em" transform="translate(446,458)">0.5</text><text y="0.71em" transform="translate(520.4,458)">0.6</text><text y="0.71em" transform="translate(594.8,458)">0.7</text><text y="0.71em" transform="translate(669.2,458)">0.8</text><text y="0.71em" transform="translate(743.6,458)">0.9</text><text y="0.71em" transform="translate(818,458)">1.0</text></g><g aria-label="x-axis label" text-anchor="end" transform="translate(39,59)"><text transform="translate(818,458)">일치 판정 임계값(정규화) →</text></g><g aria-label="text" fill="#1f2937" text-anchor="start" font-size="20" font-weight="700" transform="translate(0,-56)"><text y="0.71em" transform="translate(74,80)">생체인증 임계값에 따른 FMR·FNMR 상충 개념도</text></g><g aria-label="dot" fill="#2563eb" transform="translate(6,-24)"><circle cx="74" cy="80" r="6"></circle></g><g aria-label="text" fill="#475569" text-anchor="start" transform="translate(18,-24)"><text y="0.71em" transform="translate(74,80)">FMR 타인 오수락률</text></g><g aria-label="dot" fill="#dc2626" transform="translate(170,-24)"><circle cx="74" cy="80" r="6"></circle></g><g aria-label="text" fill="#475569" text-anchor="start" transform="translate(182,-24)"><text y="0.71em" transform="translate(74,80)">FNMR 본인 오거부율</text></g><g aria-label="line" fill="none" stroke-width="3" stroke-linejoin="round" stroke-linecap="round"><path stroke="#2563eb" d="M74,80L222.8,264.464L371.6,376.352L446,410.75L520.4,433.808L669.2,454.976L818,458"></path><path stroke="#dc2626" d="M74,458L222.8,454.976L371.6,433.808L446,410.75L520.4,376.352L669.2,264.464L818,80"></path></g><g aria-label="dot"><circle cx="74" cy="80" r="4" fill="#2563eb"></circle><circle cx="74" cy="458" r="4" fill="#dc2626"></circle><circle cx="222.8" cy="264.46399999999994" r="4" fill="#2563eb"></circle><circle cx="222.8" cy="454.976" r="4" fill="#dc2626"></circle><circle cx="371.6" cy="376.352" r="4" fill="#2563eb"></circle><circle cx="371.6" cy="433.808" r="4" fill="#dc2626"></circle><circle cx="446" cy="410.75" r="4" fill="#2563eb"></circle><circle cx="446" cy="410.75" r="4" fill="#dc2626"></circle><circle cx="520.4" cy="433.808" r="4" fill="#2563eb"></circle><circle cx="520.4" cy="376.352" r="4" fill="#dc2626"></circle><circle cx="669.2" cy="454.976" r="4" fill="#2563eb"></circle><circle cx="669.2" cy="264.46399999999994" r="4" fill="#dc2626"></circle><circle cx="818" cy="458" r="4" fill="#2563eb"></circle><circle cx="818" cy="80" r="4" fill="#dc2626"></circle></g><g aria-label="text" fill="#475569" font-weight="600" transform="translate(0,-12)"><text y="0.32em" transform="translate(446,410.75)">교차점은 EER 개념 위치</text></g></svg>