<svg class="plot-d6a7b5" fill="currentColor" font-family="system-ui, sans-serif" font-size="10" text-anchor="middle" width="860" height="520" viewBox="0 0 860 520" style="background: rgb(248, 250, 252); color: rgb(51, 65, 85); font-family: system-ui, sans-serif; font-size: 15px;" xmlns="http://www.w3.org/2000/svg" role="img" aria-label="PMU 다중화 실행 비율에 따른 보정 배율: 다중화 보정 배율 계열 차트"><style>:where(.plot-d6a7b5) {
  --plot-background: white;
  display: block;
  height: auto;
  height: intrinsic;
  max-width: 100%;
}
:where(.plot-d6a7b5 text),
:where(.plot-d6a7b5 tspan) {
  white-space: pre;
}</style><g aria-label="y-grid" aria-hidden="true" stroke="currentColor" stroke-opacity="0.1"><line x1="74" x2="818" y1="458" y2="458"></line><line x1="74" x2="818" y1="416" y2="416"></line><line x1="74" x2="818" y1="374" y2="374"></line><line x1="74" x2="818" y1="332.00000000000006" y2="332.00000000000006"></line><line x1="74" x2="818" y1="290" y2="290"></line><line x1="74" x2="818" y1="248" y2="248"></line><line x1="74" x2="818" y1="206" y2="206"></line><line x1="74" x2="818" y1="164" y2="164"></line><line x1="74" x2="818" y1="122.00000000000003" y2="122.00000000000003"></line><line x1="74" x2="818" y1="80" y2="80"></line></g><g aria-label="y-axis tick" aria-hidden="true" fill="none" stroke="currentColor"><path transform="translate(74,458)" d="M0,0L-6,0"></path><path transform="translate(74,416)" d="M0,0L-6,0"></path><path transform="translate(74,374)" d="M0,0L-6,0"></path><path transform="translate(74,332.00000000000006)" d="M0,0L-6,0"></path><path transform="translate(74,290)" d="M0,0L-6,0"></path><path transform="translate(74,248)" d="M0,0L-6,0"></path><path transform="translate(74,206)" d="M0,0L-6,0"></path><path transform="translate(74,164)" d="M0,0L-6,0"></path><path transform="translate(74,122.00000000000003)" d="M0,0L-6,0"></path><path transform="translate(74,80)" d="M0,0L-6,0"></path></g><g aria-label="y-axis tick label" text-anchor="end" font-variant="tabular-nums" transform="translate(-9,0)"><text y="0.32em" transform="translate(74,458)">1</text><text y="0.32em" transform="translate(74,416)">2</text><text y="0.32em" transform="translate(74,374)">3</text><text y="0.32em" transform="translate(74,332.00000000000006)">4</text><text y="0.32em" transform="translate(74,290)">5</text><text y="0.32em" transform="translate(74,248)">6</text><text y="0.32em" transform="translate(74,206)">7</text><text y="0.32em" transform="translate(74,164)">8</text><text y="0.32em" transform="translate(74,122.00000000000003)">9</text><text y="0.32em" transform="translate(74,80)">10</text></g><g aria-label="y-axis label" text-anchor="start" transform="translate(-71,-77)"><text y="0.71em" transform="translate(74,80)">↑ 보정 배율 T_enabled/T_running</text></g><g aria-label="x-grid" aria-hidden="true" stroke="currentColor" stroke-opacity="0.1"><line x1="74" x2="74" y1="80" y2="458"></line><line x1="156.66666666666666" x2="156.66666666666666" y1="80" y2="458"></line><line x1="239.33333333333331" x2="239.33333333333331" y1="80" y2="458"></line><line x1="321.99999999999994" x2="321.99999999999994" y1="80" y2="458"></line><line x1="404.66666666666663" x2="404.66666666666663" y1="80" y2="458"></line><line x1="487.33333333333337" x2="487.33333333333337" y1="80" y2="458"></line><line x1="569.9999999999999" x2="569.9999999999999" y1="80" y2="458"></line><line x1="652.6666666666667" x2="652.6666666666667" y1="80" y2="458"></line><line x1="735.3333333333333" x2="735.3333333333333" y1="80" y2="458"></line><line x1="818" x2="818" y1="80" y2="458"></line></g><g aria-label="x-axis tick" aria-hidden="true" fill="none" stroke="currentColor"><path transform="translate(74,458)" d="M0,0L0,6"></path><path transform="translate(156.66666666666666,458)" d="M0,0L0,6"></path><path transform="translate(239.33333333333331,458)" d="M0,0L0,6"></path><path transform="translate(321.99999999999994,458)" d="M0,0L0,6"></path><path transform="translate(404.66666666666663,458)" d="M0,0L0,6"></path><path transform="translate(487.33333333333337,458)" d="M0,0L0,6"></path><path transform="translate(569.9999999999999,458)" d="M0,0L0,6"></path><path transform="translate(652.6666666666667,458)" d="M0,0L0,6"></path><path transform="translate(735.3333333333333,458)" d="M0,0L0,6"></path><path transform="translate(818,458)" d="M0,0L0,6"></path></g><g aria-label="x-axis tick label" font-variant="tabular-nums" transform="translate(0,9)"><text y="0.71em" transform="translate(74,458)">10</text><text y="0.71em" transform="translate(156.66666666666666,458)">20</text><text y="0.71em" transform="translate(239.33333333333331,458)">30</text><text y="0.71em" transform="translate(321.99999999999994,458)">40</text><text y="0.71em" transform="translate(404.66666666666663,458)">50</text><text y="0.71em" transform="translate(487.33333333333337,458)">60</text><text y="0.71em" transform="translate(569.9999999999999,458)">70</text><text y="0.71em" transform="translate(652.6666666666667,458)">80</text><text y="0.71em" transform="translate(735.3333333333333,458)">90</text><text y="0.71em" transform="translate(818,458)">100</text></g><g aria-label="x-axis label" text-anchor="end" transform="translate(39,59)"><text transform="translate(818,458)">카운터 실제 실행 비율(%) →</text></g><g aria-label="text" fill="#1f2937" text-anchor="start" font-size="20" font-weight="700" transform="translate(0,-56)"><text y="0.71em" transform="translate(74,80)">PMU 다중화 실행 비율에 따른 보정 배율</text></g><g aria-label="dot" fill="#2563eb" transform="translate(6,-24)"><circle cx="74" cy="80" r="6"></circle></g><g aria-label="text" fill="#475569" text-anchor="start" transform="translate(18,-24)"><text y="0.71em" transform="translate(74,80)">다중화 보정 배율</text></g><g aria-label="line" fill="none" stroke-width="3" stroke-linejoin="round" stroke-linecap="round"><path stroke="#2563eb" d="M74,80L198,332L404.667,416L611.333,444L818,458"></path></g><g aria-label="dot"><circle cx="74" cy="80" r="4" fill="#2563eb"></circle><circle cx="198" cy="332.00000000000006" r="4" fill="#2563eb"></circle><circle cx="404.66666666666663" cy="416" r="4" fill="#2563eb"></circle><circle cx="611.3333333333333" cy="444.00000000000006" r="4" fill="#2563eb"></circle><circle cx="818" cy="458" r="4" fill="#2563eb"></circle></g><g aria-label="text" fill="#475569" text-anchor="start" font-weight="600" transform="translate(8,16)"><text y="0.32em" transform="translate(74,80)">실행 10%이면 10배 환산</text></g></svg>