<svg class="plot-d6a7b5" fill="currentColor" font-family="system-ui, sans-serif" font-size="10" text-anchor="middle" width="860" height="520" viewBox="0 0 860 520" style="background: rgb(248, 250, 252); color: rgb(51, 65, 85); font-family: system-ui, sans-serif; font-size: 15px;" xmlns="http://www.w3.org/2000/svg" role="img" aria-label="코드 거리에 따른 정정 가능 오류 수: t=⌊(d-1)/2⌋ 계열 차트"><style>:where(.plot-d6a7b5) {
  --plot-background: white;
  display: block;
  height: auto;
  height: intrinsic;
  max-width: 100%;
}
:where(.plot-d6a7b5 text),
:where(.plot-d6a7b5 tspan) {
  white-space: pre;
}</style><g aria-label="y-grid" aria-hidden="true" stroke="currentColor" stroke-opacity="0.1"><line x1="74" x2="818" y1="458" y2="458"></line><line x1="74" x2="818" y1="421.4" y2="421.4"></line><line x1="74" x2="818" y1="384.8" y2="384.8"></line><line x1="74" x2="818" y1="348.2" y2="348.2"></line><line x1="74" x2="818" y1="311.6" y2="311.6"></line><line x1="74" x2="818" y1="275" y2="275"></line><line x1="74" x2="818" y1="238.4" y2="238.4"></line><line x1="74" x2="818" y1="201.8" y2="201.8"></line><line x1="74" x2="818" y1="165.2" y2="165.2"></line><line x1="74" x2="818" y1="128.6" y2="128.6"></line><line x1="74" x2="818" y1="92" y2="92"></line></g><g aria-label="y-axis tick" aria-hidden="true" fill="none" stroke="currentColor"><path transform="translate(74,458)" d="M0,0L-6,0"></path><path transform="translate(74,421.4)" d="M0,0L-6,0"></path><path transform="translate(74,384.8)" d="M0,0L-6,0"></path><path transform="translate(74,348.2)" d="M0,0L-6,0"></path><path transform="translate(74,311.6)" d="M0,0L-6,0"></path><path transform="translate(74,275)" d="M0,0L-6,0"></path><path transform="translate(74,238.4)" d="M0,0L-6,0"></path><path transform="translate(74,201.8)" d="M0,0L-6,0"></path><path transform="translate(74,165.2)" d="M0,0L-6,0"></path><path transform="translate(74,128.6)" d="M0,0L-6,0"></path><path transform="translate(74,92)" d="M0,0L-6,0"></path></g><g aria-label="y-axis tick label" text-anchor="end" font-variant="tabular-nums" transform="translate(-9,0)"><text y="0.32em" transform="translate(74,458)">0.0</text><text y="0.32em" transform="translate(74,421.4)">0.5</text><text y="0.32em" transform="translate(74,384.8)">1.0</text><text y="0.32em" transform="translate(74,348.2)">1.5</text><text y="0.32em" transform="translate(74,311.6)">2.0</text><text y="0.32em" transform="translate(74,275)">2.5</text><text y="0.32em" transform="translate(74,238.4)">3.0</text><text y="0.32em" transform="translate(74,201.8)">3.5</text><text y="0.32em" transform="translate(74,165.2)">4.0</text><text y="0.32em" transform="translate(74,128.6)">4.5</text><text y="0.32em" transform="translate(74,92)">5.0</text></g><g aria-label="y-axis label" text-anchor="start" transform="translate(-71,-89)"><text y="0.71em" transform="translate(74,92)">↑ 정정 가능 오류 수 t</text></g><g aria-label="x-grid" aria-hidden="true" stroke="currentColor" stroke-opacity="0.1"><line x1="74" x2="74" y1="92" y2="458"></line><line x1="141.63636363636363" x2="141.63636363636363" y1="92" y2="458"></line><line x1="209.27272727272725" x2="209.27272727272725" y1="92" y2="458"></line><line x1="276.9090909090909" x2="276.9090909090909" y1="92" y2="458"></line><line x1="344.5454545454545" x2="344.5454545454545" y1="92" y2="458"></line><line x1="412.1818181818182" x2="412.1818181818182" y1="92" y2="458"></line><line x1="479.81818181818176" x2="479.81818181818176" y1="92" y2="458"></line><line x1="547.4545454545454" x2="547.4545454545454" y1="92" y2="458"></line><line x1="615.090909090909" x2="615.090909090909" y1="92" y2="458"></line><line x1="682.7272727272729" x2="682.7272727272729" y1="92" y2="458"></line><line x1="750.3636363636364" x2="750.3636363636364" y1="92" y2="458"></line><line x1="818" x2="818" y1="92" y2="458"></line></g><g aria-label="x-axis tick" aria-hidden="true" fill="none" stroke="currentColor"><path transform="translate(74,458)" d="M0,0L0,6"></path><path transform="translate(141.63636363636363,458)" d="M0,0L0,6"></path><path transform="translate(209.27272727272725,458)" d="M0,0L0,6"></path><path transform="translate(276.9090909090909,458)" d="M0,0L0,6"></path><path transform="translate(344.5454545454545,458)" d="M0,0L0,6"></path><path transform="translate(412.1818181818182,458)" d="M0,0L0,6"></path><path transform="translate(479.81818181818176,458)" d="M0,0L0,6"></path><path transform="translate(547.4545454545454,458)" d="M0,0L0,6"></path><path transform="translate(615.090909090909,458)" d="M0,0L0,6"></path><path transform="translate(682.7272727272729,458)" d="M0,0L0,6"></path><path transform="translate(750.3636363636364,458)" d="M0,0L0,6"></path><path transform="translate(818,458)" d="M0,0L0,6"></path></g><g aria-label="x-axis tick label" font-variant="tabular-nums" transform="translate(0,9)"><text y="0.71em" transform="translate(74,458)">0</text><text y="0.71em" transform="translate(141.63636363636363,458)">1</text><text y="0.71em" transform="translate(209.27272727272725,458)">2</text><text y="0.71em" transform="translate(276.9090909090909,458)">3</text><text y="0.71em" transform="translate(344.5454545454545,458)">4</text><text y="0.71em" transform="translate(412.1818181818182,458)">5</text><text y="0.71em" transform="translate(479.81818181818176,458)">6</text><text y="0.71em" transform="translate(547.4545454545454,458)">7</text><text y="0.71em" transform="translate(615.090909090909,458)">8</text><text y="0.71em" transform="translate(682.7272727272729,458)">9</text><text y="0.71em" transform="translate(750.3636363636364,458)">10</text><text y="0.71em" transform="translate(818,458)">11</text></g><g aria-label="x-axis label" text-anchor="end" transform="translate(39,59)"><text transform="translate(818,458)">코드 거리 d →</text></g><g aria-label="text" fill="#1f2937" font-size="20" font-weight="700" transform="translate(0,-72)"><text y="0.71em" transform="translate(107.81818181818181,384.8)">코드 거리에 따른 정정 가능 오류 수</text></g><g aria-label="line" fill="none" stroke-width="3" stroke-linejoin="round" stroke-linecap="round"><path stroke="#2563eb" d="M276.909,384.8L412.182,311.6L547.455,238.4L682.727,165.2L818,92"></path></g><g aria-label="dot"><circle cx="276.9090909090909" cy="384.8" r="4" fill="#2563eb"></circle><circle cx="412.1818181818182" cy="311.6" r="4" fill="#2563eb"></circle><circle cx="547.4545454545454" cy="238.4" r="4" fill="#2563eb"></circle><circle cx="682.7272727272729" cy="165.2" r="4" fill="#2563eb"></circle><circle cx="818" cy="92" r="4" fill="#2563eb"></circle></g><g aria-label="text" fill="#475569" font-weight="600" transform="translate(0,-12)"><text y="0.32em" transform="translate(818,92)">d=11에서 최대 5개 정정</text></g><g aria-label="dot" transform="translate(0,-42)"><circle cx="74" cy="458" r="6" fill="#2563eb"></circle></g><g aria-label="text" fill="#475569" text-anchor="start" transform="translate(12,-42)"><text y="0.71em" transform="translate(74,458)">t=⌊(d-1)/2⌋</text></g></svg>